<svg width="112" height="34" viewBox="0 0 112 34" fill="none" xmlns="http://www.w3.org/2000/svg">
<path fill-rule="evenodd" clip-rule="evenodd" d="M17 34C26.3888 34 34 26.3888 34 17C34 7.61116 26.3888 0 17 0C7.61114 0 0 7.61116 0 17C0 26.3888 7.61114 34 17 34ZM22.3034 7.91931C22.5616 7.00234 21.6717 6.46011 20.859 7.0391L9.51415 15.1211C8.63278 15.749 8.77142 17 9.7224 17H12.7098V16.9768H18.5321L13.788 18.6508L11.6966 26.0807C11.4385 26.9977 12.3282 27.5399 13.141 26.9609L24.4859 18.8789C25.3672 18.251 25.2285 17 24.2776 17H19.7473L22.3034 7.91931Z" fill="#0260FF"/>
<path d="M42.728 26V9.128H45.032L51.872 20.072H50.552L57.368 9.128H59.672V26H56.432V14.72L57.056 14.912L52.304 22.544H50.096L45.344 14.912L45.992 14.72V26H42.728ZM62.7826 26V14.408H65.9506V26H62.7826ZM64.3666 12.536C63.8546 12.536 63.4306 12.368 63.0946 12.032C62.7586 11.68 62.5906 11.248 62.5906 10.736C62.5906 10.24 62.7586 9.816 63.0946 9.464C63.4306 9.112 63.8546 8.936 64.3666 8.936C64.8946 8.936 65.3186 9.112 65.6386 9.464C65.9746 9.816 66.1426 10.24 66.1426 10.736C66.1426 11.248 65.9746 11.68 65.6386 12.032C65.3186 12.368 64.8946 12.536 64.3666 12.536ZM76.5358 26V19.352C76.5358 18.664 76.3198 18.104 75.8878 17.672C75.4558 17.24 74.8958 17.024 74.2078 17.024C73.7598 17.024 73.3598 17.12 73.0078 17.312C72.6558 17.504 72.3758 17.776 72.1678 18.128C71.9758 18.48 71.8798 18.888 71.8798 19.352L70.6558 18.728C70.6558 17.816 70.8478 17.024 71.2318 16.352C71.6318 15.664 72.1758 15.128 72.8638 14.744C73.5678 14.36 74.3598 14.168 75.2398 14.168C76.0878 14.168 76.8478 14.384 77.5198 14.816C78.1918 15.232 78.7198 15.784 79.1038 16.472C79.4878 17.144 79.6797 17.872 79.6797 18.656V26H76.5358ZM68.7358 26V14.408H71.8798V26H68.7358ZM87.1083 26.24C86.0363 26.24 85.0763 25.976 84.2283 25.448C83.3803 24.92 82.7083 24.2 82.2123 23.288C81.7323 22.376 81.4923 21.352 81.4923 20.216C81.4923 19.064 81.7323 18.032 82.2123 17.12C82.7083 16.208 83.3723 15.488 84.2043 14.96C85.0523 14.432 86.0203 14.168 87.1083 14.168C87.9403 14.168 88.6843 14.336 89.3403 14.672C90.0123 15.008 90.5483 15.48 90.9483 16.088C91.3643 16.68 91.5883 17.352 91.6203 18.104V22.232C91.5883 22.984 91.3723 23.664 90.9723 24.272C90.5723 24.88 90.0363 25.36 89.3643 25.712C88.6923 26.064 87.9403 26.24 87.1083 26.24ZM87.6363 23.336C88.2283 23.336 88.7403 23.208 89.1723 22.952C89.6203 22.68 89.9643 22.312 90.2043 21.848C90.4603 21.368 90.5883 20.816 90.5883 20.192C90.5883 19.584 90.4603 19.048 90.2043 18.584C89.9643 18.104 89.6203 17.736 89.1723 17.48C88.7403 17.208 88.2363 17.072 87.6603 17.072C87.0683 17.072 86.5483 17.208 86.1003 17.48C85.6683 17.752 85.3243 18.12 85.0683 18.584C84.8283 19.048 84.7083 19.584 84.7083 20.192C84.7083 20.816 84.8283 21.368 85.0683 21.848C85.3243 22.312 85.6763 22.68 86.1243 22.952C86.5723 23.208 87.0763 23.336 87.6363 23.336ZM93.5403 26H90.4203V22.88L90.9243 20.048L90.3963 17.264V8.648H93.5403V26ZM107.602 26L102.754 18.488H102.274L95.6977 9.128H99.5617L104.386 16.208H104.866L111.418 26H107.602ZM95.4097 26L101.722 16.976L104.122 18.584L99.1057 26H95.4097ZM105.034 17.984L102.634 16.376L107.434 9.128H111.13L105.034 17.984Z" fill="white"/>
</svg>
