<svg xmlns="http://www.w3.org/2000/svg" xmlns:xlink="http://www.w3.org/1999/xlink" width="500" zoomAndPan="magnify" viewBox="0 0 375 374.999991" height="500" preserveAspectRatio="xMidYMid meet" version="1.0"><defs><g/><clipPath id="84feb30441"><path d="M 230.167969 122.183594 L 362.84375 122.183594 L 362.84375 252.816406 L 230.167969 252.816406 Z M 230.167969 122.183594 " clip-rule="nonzero"/></clipPath><clipPath id="88e67d0115"><path d="M 296.382812 122.183594 C 259.8125 122.183594 230.167969 151.425781 230.167969 187.5 C 230.167969 223.574219 259.8125 252.816406 296.382812 252.816406 C 332.953125 252.816406 362.601562 223.574219 362.601562 187.5 C 362.601562 151.425781 332.953125 122.183594 296.382812 122.183594 Z M 296.382812 122.183594 " clip-rule="nonzero"/></clipPath><clipPath id="7b8894d617"><path d="M 0.167969 0.183594 L 132.640625 0.183594 L 132.640625 130.816406 L 0.167969 130.816406 Z M 0.167969 0.183594 " clip-rule="nonzero"/></clipPath><clipPath id="2551c565fe"><path d="M 66.382812 0.183594 C 29.8125 0.183594 0.167969 29.425781 0.167969 65.5 C 0.167969 101.574219 29.8125 130.816406 66.382812 130.816406 C 102.953125 130.816406 132.601562 101.574219 132.601562 65.5 C 132.601562 29.425781 102.953125 0.183594 66.382812 0.183594 Z M 66.382812 0.183594 " clip-rule="nonzero"/></clipPath><clipPath id="263f23d033"><rect x="0" width="133" y="0" height="131"/></clipPath><clipPath id="04b7fa4def"><rect x="0" width="219" y="0" height="174"/></clipPath><clipPath id="0e20ef4ebc"><rect x="0" width="77" y="0" height="174"/></clipPath></defs><g clip-path="url(#84feb30441)"><g clip-path="url(#88e67d0115)"><g transform="matrix(1, 0, 0, 1, 230, 122)"><g clip-path="url(#263f23d033)"><g clip-path="url(#7b8894d617)"><g clip-path="url(#2551c565fe)"><path fill="#38b6ff" d="M 0.167969 0.183594 L 132.84375 0.183594 L 132.84375 130.816406 L 0.167969 130.816406 Z M 0.167969 0.183594 " fill-opacity="1" fill-rule="nonzero"/></g></g></g></g></g></g><g transform="matrix(1, 0, 0, 1, 9, 100)"><g clip-path="url(#04b7fa4def)"><g fill="#000000" fill-opacity="1"><g transform="translate(1.963739, 131.461883)"><g><path d="M 29.21875 -53.671875 C 28.78125 -50.921875 28.03125 -46.800781 26.96875 -41.3125 C 26.789062 -40.601562 25.59375 -33.382812 23.375 -19.65625 C 22.488281 -15.226562 21.296875 -9.960938 19.796875 -3.859375 C 19.347656 -2.171875 18.550781 -1.0625 17.40625 -0.53125 C 16.164062 0 14.789062 -0.175781 13.28125 -1.0625 C 10.800781 -2.65625 8.410156 -3.007812 6.109375 -2.125 C 5.222656 -1.863281 3.894531 -2 2.125 -2.53125 C 0.351562 -3.0625 -0.304688 -4.300781 0.140625 -6.25 C 2.523438 -17.9375 4.117188 -25.238281 4.921875 -28.15625 C 5.179688 -29.21875 5.535156 -30.898438 5.984375 -33.203125 C 6.421875 -35.515625 6.773438 -37.242188 7.046875 -38.390625 L 12.625 -64.296875 C 13.238281 -67.304688 13.769531 -70.363281 14.21875 -73.46875 C 14.476562 -75.59375 15.050781 -78.601562 15.9375 -82.5 C 16.820312 -86.394531 17.351562 -88.695312 17.53125 -89.40625 C 17.53125 -89.757812 17.707031 -90.378906 18.0625 -91.265625 C 18.769531 -92.859375 20.007812 -93.65625 21.78125 -93.65625 C 22.582031 -93.65625 23.78125 -93.519531 25.375 -93.25 C 26.875 -92.988281 28.023438 -92.898438 28.828125 -92.984375 C 30.773438 -92.984375 32.234375 -93.070312 33.203125 -93.25 C 35.335938 -93.601562 37.023438 -93.335938 38.265625 -92.453125 C 38.617188 -92.097656 38.972656 -91.921875 39.328125 -91.921875 C 40.566406 -91.921875 41.453125 -91.613281 41.984375 -91 C 42.421875 -90.289062 42.816406 -89.179688 43.171875 -87.671875 C 45.035156 -79.171875 45.96875 -66.90625 45.96875 -50.875 C 45.96875 -48.925781 46.144531 -47.554688 46.5 -46.765625 C 47.03125 -46.941406 47.382812 -47.515625 47.5625 -48.484375 C 48.53125 -51.316406 50.125 -57.382812 52.34375 -66.6875 C 52.957031 -69.34375 54.0625 -73.195312 55.65625 -78.25 C 57.25 -83.207031 58.359375 -86.835938 58.984375 -89.140625 C 59.421875 -90.734375 60.394531 -92.015625 61.90625 -92.984375 C 63.320312 -93.867188 64.875 -94.222656 66.5625 -94.046875 C 67.445312 -93.960938 68.421875 -93.875 69.484375 -93.78125 C 70.546875 -93.695312 71.695312 -93.609375 72.9375 -93.515625 C 74.175781 -93.429688 75.148438 -93.34375 75.859375 -93.25 C 76.472656 -93.25 78.332031 -92.804688 81.4375 -91.921875 C 82.5 -91.660156 83.207031 -90.734375 83.5625 -89.140625 C 85.238281 -79.578125 86.125 -74.085938 86.21875 -72.671875 C 86.476562 -69.390625 87.140625 -64.472656 88.203125 -57.921875 C 88.472656 -56.328125 88.609375 -54.6875 88.609375 -53 C 88.867188 -44.59375 89.046875 -39.898438 89.140625 -38.921875 C 89.398438 -35.828125 89.3125 -32.550781 88.875 -29.09375 C 88.601562 -26.789062 88.734375 -23.601562 89.265625 -19.53125 C 89.617188 -16.519531 89.617188 -12.84375 89.265625 -8.5 L 89.265625 -6.90625 C 88.472656 -1.769531 86.039062 0.53125 81.96875 0 C 80.988281 -0.175781 79.347656 -0.222656 77.046875 -0.140625 C 74.742188 0.046875 73.0625 0.09375 72 0 C 70.757812 -0.09375 69.742188 -1.023438 68.953125 -2.796875 C 68.066406 -4.472656 67.578125 -6.15625 67.484375 -7.84375 C 67.398438 -9.082031 67.359375 -10.894531 67.359375 -13.28125 C 67.265625 -15.582031 67.175781 -17.707031 67.09375 -19.65625 C 67 -21.601562 66.863281 -23.421875 66.6875 -25.109375 C 66.507812 -26.429688 66.507812 -28.910156 66.6875 -32.546875 C 66.78125 -36.085938 66.601562 -38.476562 66.15625 -39.71875 C 65.976562 -40.957031 65.800781 -41.664062 65.625 -41.84375 C 65.351562 -41.84375 65.175781 -41.800781 65.09375 -41.71875 C 64.914062 -41.539062 64.78125 -41.363281 64.6875 -41.1875 C 64.601562 -40.914062 64.5625 -40.738281 64.5625 -40.65625 C 63.675781 -38.882812 62.703125 -36.269531 61.640625 -32.8125 C 60.484375 -29.269531 59.726562 -27.007812 59.375 -26.03125 C 58.757812 -24.4375 57.921875 -22.046875 56.859375 -18.859375 C 55.796875 -15.585938 54.910156 -13.15625 54.203125 -11.5625 C 53.046875 -8.8125 51.671875 -6.90625 50.078125 -5.84375 C 48.484375 -4.78125 46.316406 -4.515625 43.578125 -5.046875 C 42.242188 -5.316406 40.296875 -5.363281 37.734375 -5.1875 C 33.828125 -4.914062 31.785156 -6.640625 31.609375 -10.359375 C 31.523438 -12.304688 31.394531 -15.226562 31.21875 -19.125 C 30.945312 -22.9375 30.8125 -25.769531 30.8125 -27.625 C 30.632812 -33.382812 30.191406 -42.019531 29.484375 -53.53125 C 29.398438 -53.625 29.3125 -53.671875 29.21875 -53.671875 Z M 29.21875 -53.671875 "/></g></g></g><g fill="#000000" fill-opacity="1"><g transform="translate(95.48901, 131.461883)"><g><path d="M 0.53125 -19 C 0.445312 -21.476562 0.535156 -25.859375 0.796875 -32.140625 C 1.066406 -38.429688 1.113281 -43.304688 0.9375 -46.765625 C 0.9375 -47.472656 0.890625 -48.3125 0.796875 -49.28125 C 0.710938 -50.257812 0.710938 -51.234375 0.796875 -52.203125 C 0.890625 -55.566406 2.925781 -57.601562 6.90625 -58.3125 C 8.59375 -58.664062 11.472656 -58.535156 15.546875 -57.921875 C 16.691406 -57.648438 17.398438 -56.894531 17.671875 -55.65625 C 17.753906 -55.039062 17.796875 -54.066406 17.796875 -52.734375 C 17.796875 -44.148438 17.617188 -37.242188 17.265625 -32.015625 C 17.179688 -30.066406 17.140625 -27.410156 17.140625 -24.046875 L 17.140625 -16.078125 C 17.046875 -13.421875 16.820312 -9.4375 16.46875 -4.125 C 16.382812 -1.820312 15.101562 -0.535156 12.625 -0.265625 C 9.4375 -0.0859375 6.691406 -0.175781 4.390625 -0.53125 C 2.878906 -0.707031 1.859375 -1.148438 1.328125 -1.859375 C 0.796875 -2.484375 0.53125 -3.59375 0.53125 -5.1875 Z M 0.140625 -76.65625 C 0.140625 -80.726562 2.128906 -83.335938 6.109375 -84.484375 C 8.679688 -85.285156 10.097656 -85.6875 10.359375 -85.6875 C 13.285156 -86.039062 15.765625 -85.019531 17.796875 -82.625 C 18.503906 -81.65625 19.171875 -80.414062 19.796875 -78.90625 C 20.585938 -76.957031 20.5 -75.097656 19.53125 -73.328125 L 18.328125 -70.9375 C 16.378906 -67.21875 13.546875 -65.625 9.828125 -66.15625 C 7.265625 -66.507812 5.007812 -67.617188 3.0625 -69.484375 C 1.019531 -71.253906 0.046875 -73.644531 0.140625 -76.65625 Z M 0.140625 -76.65625 "/></g></g></g><g fill="#000000" fill-opacity="1"><g transform="translate(119.933119, 131.461883)"><g><path d="M 15.9375 -51.8125 C 19.394531 -54.46875 21.832031 -56.101562 23.25 -56.71875 C 27.050781 -58.226562 31.082031 -58.273438 35.34375 -56.859375 C 35.78125 -56.679688 36.175781 -56.457031 36.53125 -56.1875 C 36.882812 -55.925781 37.195312 -55.707031 37.46875 -55.53125 C 37.644531 -55.257812 37.910156 -54.90625 38.265625 -54.46875 C 38.523438 -53.9375 38.742188 -53.582031 38.921875 -53.40625 C 39.015625 -53.132812 39.238281 -52.691406 39.59375 -52.078125 C 39.851562 -51.453125 40.03125 -51.097656 40.125 -51.015625 C 40.5625 -50.035156 41.09375 -47.863281 41.71875 -44.5 C 42.25 -41.3125 42.601562 -37.457031 42.78125 -32.9375 C 42.78125 -31.082031 42.867188 -27.097656 43.046875 -20.984375 C 43.222656 -14.878906 43.3125 -10.144531 43.3125 -6.78125 L 43.3125 -3.984375 C 43.21875 -3.015625 43.082031 -2.441406 42.90625 -2.265625 C 42.726562 -1.992188 42.109375 -1.679688 41.046875 -1.328125 C 40.609375 -1.148438 40.164062 -0.929688 39.71875 -0.671875 C 38.832031 -0.128906 38.035156 0.09375 37.328125 0 C 36.617188 -0.175781 35.820312 -0.3125 34.9375 -0.40625 C 34.050781 -0.40625 33.253906 -0.40625 32.546875 -0.40625 C 31.835938 -0.3125 31.039062 -0.3125 30.15625 -0.40625 C 29.625 -0.40625 29.003906 -0.582031 28.296875 -0.9375 C 27.410156 -1.289062 27.007812 -2 27.09375 -3.0625 C 27.269531 -6.425781 27.445312 -8.859375 27.625 -10.359375 C 28.332031 -15.941406 28.332031 -21.566406 27.625 -27.234375 C 27.445312 -28.554688 27.445312 -30.503906 27.625 -33.078125 C 27.625 -34.941406 27.179688 -36.976562 26.296875 -39.1875 C 25.234375 -41.84375 23.6875 -42.066406 21.65625 -39.859375 C 20.945312 -38.972656 20.367188 -37.910156 19.921875 -36.671875 C 17.441406 -27.628906 16.335938 -20.320312 16.609375 -14.75 C 16.691406 -12.351562 16.515625 -9.519531 16.078125 -6.25 C 15.722656 -4.5625 15.144531 -3.320312 14.34375 -2.53125 C 13.550781 -1.726562 12.359375 -1.285156 10.765625 -1.203125 C 8.015625 -0.929688 5.625 -0.882812 3.59375 -1.0625 C 1.101562 -1.15625 -0.046875 -2.304688 0.140625 -4.515625 C 0.222656 -5.753906 0.265625 -7.570312 0.265625 -9.96875 C 0.265625 -12.269531 0.3125 -14.039062 0.40625 -15.28125 C 0.84375 -32.195312 1.019531 -43.085938 0.9375 -47.953125 C 0.9375 -49.722656 1.066406 -51.050781 1.328125 -51.9375 C 1.503906 -53 1.460938 -53.753906 1.203125 -54.203125 C 0.671875 -55.347656 1.066406 -56.144531 2.390625 -56.59375 C 4.691406 -57.207031 6.15625 -57.515625 6.78125 -57.515625 C 9.875 -57.515625 12.21875 -57.472656 13.8125 -57.390625 C 15.757812 -57.390625 16.46875 -56.367188 15.9375 -54.328125 C 15.757812 -53.359375 15.757812 -52.519531 15.9375 -51.8125 Z M 15.9375 -51.8125 "/></g></g></g><g fill="#000000" fill-opacity="1"><g transform="translate(167.227157, 131.461883)"><g><path d="M 45.171875 -62.171875 C 45.171875 -57.296875 45.082031 -48.75 44.90625 -36.53125 C 44.632812 -24.3125 44.5 -14.878906 44.5 -8.234375 L 44.5 -6.640625 C 44.5 -4.078125 43.789062 -2.351562 42.375 -1.46875 C 40.875 -0.582031 37.953125 -0.140625 33.609375 -0.140625 C 32.273438 -0.222656 30.859375 -0.707031 29.359375 -1.59375 C 27.847656 -2.476562 26.785156 -2.921875 26.171875 -2.921875 C 25.367188 -2.921875 24.21875 -2.832031 22.71875 -2.65625 C 21.207031 -2.394531 20.054688 -2.265625 19.265625 -2.265625 C 13.421875 -2.265625 8.769531 -4.65625 5.3125 -9.4375 C 1.863281 -14.125 0.140625 -19.171875 0.140625 -24.578125 C 0.140625 -39.273438 7.488281 -50.035156 22.1875 -56.859375 C 23.070312 -57.210938 24.265625 -57.390625 25.765625 -57.390625 C 27.179688 -57.296875 28.332031 -57.335938 29.21875 -57.515625 C 30.101562 -57.691406 30.546875 -58.179688 30.546875 -58.984375 C 30.546875 -59.421875 30.457031 -60.75 30.28125 -62.96875 C 30.101562 -65.09375 30.015625 -66.910156 30.015625 -68.421875 C 30.015625 -73.460938 30.191406 -78.019531 30.546875 -82.09375 C 30.640625 -83.425781 31.039062 -84.3125 31.75 -84.75 C 32.457031 -85.195312 33.742188 -85.421875 35.609375 -85.421875 C 42.160156 -85.421875 45.4375 -84.269531 45.4375 -81.96875 C 45.4375 -81.519531 45.390625 -80.632812 45.296875 -79.3125 C 45.210938 -77.976562 45.171875 -76.867188 45.171875 -75.984375 C 45.171875 -74.921875 45.210938 -73.328125 45.296875 -71.203125 C 45.296875 -69.078125 45.296875 -67.53125 45.296875 -66.5625 C 45.296875 -64.34375 45.253906 -62.878906 45.171875 -62.171875 Z M 16.875 -27.09375 C 16.78125 -26.738281 16.734375 -26.253906 16.734375 -25.640625 C 16.734375 -19.523438 18.992188 -16.46875 23.515625 -16.46875 C 26.609375 -16.46875 28.289062 -17.578125 28.5625 -19.796875 C 29.269531 -25.640625 29.625 -30.019531 29.625 -32.9375 L 29.625 -34.8125 C 29.625 -35.34375 29.710938 -36.050781 29.890625 -36.9375 C 29.972656 -37.820312 30.015625 -38.484375 30.015625 -38.921875 C 30.015625 -40.078125 29.617188 -40.65625 28.828125 -40.65625 C 26.785156 -40.65625 25.191406 -40.34375 24.046875 -39.71875 C 22.890625 -39.007812 21.515625 -37.59375 19.921875 -35.46875 C 17.796875 -32.894531 16.734375 -30.457031 16.734375 -28.15625 C 16.734375 -28.070312 16.78125 -27.941406 16.875 -27.765625 C 16.875 -27.492188 16.875 -27.269531 16.875 -27.09375 Z M 16.875 -27.09375 "/></g></g></g></g></g><g transform="matrix(1, 0, 0, 1, 258, 100)"><g clip-path="url(#0e20ef4ebc)"><g fill="#ffffff" fill-opacity="1"><g transform="translate(1.858396, 131.454793)"><g><path d="M 36.109375 -23.109375 C 34.785156 -20.984375 33.328125 -17.972656 31.734375 -14.078125 C 31.203125 -12.835938 30.363281 -10.929688 29.21875 -8.359375 C 28.0625 -5.796875 27.21875 -3.894531 26.6875 -2.65625 C 26.15625 -1.414062 24.960938 -0.660156 23.109375 -0.390625 L 12.875 -0.390625 C 12.082031 -0.390625 11.109375 -0.4375 9.953125 -0.53125 C 8.804688 -0.613281 7.832031 -0.65625 7.03125 -0.65625 C 6.238281 -0.570312 5.398438 -0.441406 4.515625 -0.265625 C 4.066406 -0.265625 3.753906 -0.304688 3.578125 -0.390625 C 3.492188 -0.390625 3.140625 -0.4375 2.515625 -0.53125 C 1.898438 -0.613281 1.457031 -0.742188 1.1875 -0.921875 C 0.832031 -1.015625 0.523438 -1.28125 0.265625 -1.71875 C -0.0859375 -2.425781 0.0859375 -3.488281 0.796875 -4.90625 C 1.410156 -6.320312 2.03125 -7.382812 2.65625 -8.09375 C 3.363281 -9.070312 4.289062 -10.535156 5.4375 -12.484375 C 6.59375 -14.429688 7.257812 -15.535156 7.4375 -15.796875 C 7.96875 -16.679688 8.851562 -18.1875 10.09375 -20.3125 C 11.332031 -22.4375 12.347656 -24.078125 13.140625 -25.234375 C 14.203125 -27.265625 15.441406 -29.785156 16.859375 -32.796875 C 18.191406 -35.804688 19.34375 -38.148438 20.3125 -39.828125 C 20.488281 -40.273438 21.15625 -41.296875 22.3125 -42.890625 C 23.375 -44.128906 23.503906 -45.585938 22.703125 -47.265625 C 13.234375 -68.597656 6.816406 -82.1875 3.453125 -88.03125 C 2.828125 -89.09375 2.601562 -89.847656 2.78125 -90.296875 C 2.875 -90.648438 3.40625 -90.867188 4.375 -90.953125 C 5.53125 -91.128906 7.125 -91.53125 9.15625 -92.15625 C 11.101562 -92.6875 12.429688 -93.039062 13.140625 -93.21875 C 16.066406 -93.832031 18.769531 -93.65625 21.25 -92.6875 C 23.457031 -91.976562 24.695312 -90.5625 24.96875 -88.4375 C 24.96875 -87.550781 25.1875 -86.753906 25.625 -86.046875 C 26.957031 -84.097656 28.597656 -81.175781 30.546875 -77.28125 C 32.484375 -73.289062 33.675781 -70.898438 34.125 -70.109375 C 34.125 -69.929688 34.210938 -69.753906 34.390625 -69.578125 C 34.828125 -68.773438 35.222656 -68.332031 35.578125 -68.25 C 36.023438 -68.15625 36.335938 -68.242188 36.515625 -68.515625 C 36.597656 -68.691406 36.6875 -69 36.78125 -69.4375 C 38.101562 -73.78125 39.253906 -76.613281 40.234375 -77.9375 C 40.410156 -78.207031 42.046875 -80.910156 45.140625 -86.046875 C 45.847656 -87.109375 46.425781 -88.125 46.875 -89.09375 C 47.664062 -90.507812 48.238281 -91.441406 48.59375 -91.890625 C 48.863281 -92.328125 49.484375 -92.8125 50.453125 -93.34375 C 51.429688 -93.789062 52.757812 -94.015625 54.4375 -94.015625 L 65.859375 -94.015625 C 67.179688 -94.015625 68.066406 -93.835938 68.515625 -93.484375 C 68.867188 -93.128906 68.820312 -92.375 68.375 -91.21875 C 65.90625 -83.78125 61.878906 -75.460938 56.296875 -66.265625 C 53.816406 -61.835938 51.03125 -55.945312 47.9375 -48.59375 C 47.226562 -46.914062 47.359375 -45.015625 48.328125 -42.890625 C 49.742188 -39.609375 51.425781 -36.203125 53.375 -32.671875 C 55.238281 -29.035156 57.410156 -25.050781 59.890625 -20.71875 C 62.367188 -16.375 64.226562 -13.007812 65.46875 -10.625 C 66.257812 -9.113281 66.875 -7.875 67.3125 -6.90625 C 67.757812 -5.925781 68.203125 -4.90625 68.640625 -3.84375 C 68.992188 -2.695312 69.082031 -1.859375 68.90625 -1.328125 C 68.726562 -0.703125 68.332031 -0.390625 67.71875 -0.390625 C 66.832031 -0.390625 65.328125 -0.347656 63.203125 -0.265625 C 60.992188 -0.171875 59.003906 -0.125 57.234375 -0.125 C 55.460938 -0.125 53.957031 -0.210938 52.71875 -0.390625 C 51.03125 -0.660156 49.832031 -1.238281 49.125 -2.125 C 47.09375 -4.332031 45.765625 -6.015625 45.140625 -7.171875 C 44.523438 -8.316406 43.15625 -10.707031 41.03125 -14.34375 C 38.8125 -17.96875 37.171875 -20.890625 36.109375 -23.109375 Z M 36.109375 -23.109375 "/></g></g></g></g></g></svg>