<svg width="111" height="34" viewBox="0 0 111 34" fill="none" xmlns="http://www.w3.org/2000/svg">
<path fill-rule="evenodd" clip-rule="evenodd" d="M17 34C26.3888 34 34 26.3888 34 17C34 7.61116 26.3888 0 17 0C7.61114 0 0 7.61116 0 17C0 26.3888 7.61114 34 17 34ZM22.3034 7.91931C22.5616 7.00234 21.6717 6.46011 20.859 7.0391L9.51415 15.1211C8.63278 15.749 8.77142 17 9.7224 17H12.7098V16.9768H18.5321L13.788 18.6508L11.6966 26.0807C11.4385 26.9977 12.3282 27.5399 13.141 26.9609L24.4859 18.8789C25.3672 18.251 25.2285 17 24.2776 17H19.7473L22.3034 7.91931Z" fill="#0260FF"/>
<path d="M41.728 26V9.128H44.032L50.872 20.072H49.552L56.368 9.128H58.672V26H55.432V14.72L56.056 14.912L51.304 22.544H49.096L44.344 14.912L44.992 14.72V26H41.728ZM61.7826 26V14.408H64.9506V26H61.7826ZM63.3666 12.536C62.8546 12.536 62.4306 12.368 62.0946 12.032C61.7586 11.68 61.5906 11.248 61.5906 10.736C61.5906 10.24 61.7586 9.816 62.0946 9.464C62.4306 9.112 62.8546 8.936 63.3666 8.936C63.8946 8.936 64.3186 9.112 64.6386 9.464C64.9746 9.816 65.1426 10.24 65.1426 10.736C65.1426 11.248 64.9746 11.68 64.6386 12.032C64.3186 12.368 63.8946 12.536 63.3666 12.536ZM75.5358 26V19.352C75.5358 18.664 75.3198 18.104 74.8878 17.672C74.4558 17.24 73.8958 17.024 73.2078 17.024C72.7598 17.024 72.3598 17.12 72.0078 17.312C71.6558 17.504 71.3758 17.776 71.1678 18.128C70.9758 18.48 70.8798 18.888 70.8798 19.352L69.6558 18.728C69.6558 17.816 69.8478 17.024 70.2318 16.352C70.6318 15.664 71.1758 15.128 71.8638 14.744C72.5678 14.36 73.3598 14.168 74.2398 14.168C75.0878 14.168 75.8478 14.384 76.5198 14.816C77.1918 15.232 77.7198 15.784 78.1038 16.472C78.4878 17.144 78.6797 17.872 78.6797 18.656V26H75.5358ZM67.7358 26V14.408H70.8798V26H67.7358ZM86.1083 26.24C85.0363 26.24 84.0763 25.976 83.2283 25.448C82.3803 24.92 81.7083 24.2 81.2123 23.288C80.7323 22.376 80.4923 21.352 80.4923 20.216C80.4923 19.064 80.7323 18.032 81.2123 17.12C81.7083 16.208 82.3723 15.488 83.2043 14.96C84.0523 14.432 85.0203 14.168 86.1083 14.168C86.9403 14.168 87.6843 14.336 88.3403 14.672C89.0123 15.008 89.5483 15.48 89.9483 16.088C90.3643 16.68 90.5883 17.352 90.6203 18.104V22.232C90.5883 22.984 90.3723 23.664 89.9723 24.272C89.5723 24.88 89.0363 25.36 88.3643 25.712C87.6923 26.064 86.9403 26.24 86.1083 26.24ZM86.6363 23.336C87.2283 23.336 87.7403 23.208 88.1723 22.952C88.6203 22.68 88.9643 22.312 89.2043 21.848C89.4603 21.368 89.5883 20.816 89.5883 20.192C89.5883 19.584 89.4603 19.048 89.2043 18.584C88.9643 18.104 88.6203 17.736 88.1723 17.48C87.7403 17.208 87.2363 17.072 86.6603 17.072C86.0683 17.072 85.5483 17.208 85.1003 17.48C84.6683 17.752 84.3243 18.12 84.0683 18.584C83.8283 19.048 83.7083 19.584 83.7083 20.192C83.7083 20.816 83.8283 21.368 84.0683 21.848C84.3243 22.312 84.6763 22.68 85.1243 22.952C85.5723 23.208 86.0763 23.336 86.6363 23.336ZM92.5403 26H89.4203V22.88L89.9243 20.048L89.3963 17.264V8.648H92.5403V26ZM106.602 26L101.754 18.488H101.274L94.6977 9.128H98.5617L103.386 16.208H103.866L110.418 26H106.602ZM94.4097 26L100.722 16.976L103.122 18.584L98.1057 26H94.4097ZM104.034 17.984L101.634 16.376L106.434 9.128H110.13L104.034 17.984Z" fill="#0E0E0E"/>
</svg>
