<svg xmlns="http://www.w3.org/2000/svg" xmlns:xlink="http://www.w3.org/1999/xlink" width="500" zoomAndPan="magnify" viewBox="0 0 375 374.999991" height="500" preserveAspectRatio="xMidYMid meet" version="1.0"><defs><g/><clipPath id="9b1b13597a"><path d="M 0.277344 8.738281 L 363 8.738281 L 363 366.261719 L 0.277344 366.261719 Z M 0.277344 8.738281 " clip-rule="nonzero"/></clipPath><clipPath id="45c1ab2355"><path d="M 181.5 8.738281 C 81.414062 8.738281 0.277344 88.773438 0.277344 187.5 C 0.277344 286.226562 81.414062 366.261719 181.5 366.261719 C 281.585938 366.261719 362.722656 286.226562 362.722656 187.5 C 362.722656 88.773438 281.585938 8.738281 181.5 8.738281 Z M 181.5 8.738281 " clip-rule="nonzero"/></clipPath><clipPath id="f18da3fad6"><path d="M 0.277344 0.738281 L 362.878906 0.738281 L 362.878906 358.261719 L 0.277344 358.261719 Z M 0.277344 0.738281 " clip-rule="nonzero"/></clipPath><clipPath id="2abb8fa3d0"><path d="M 181.5 0.738281 C 81.414062 0.738281 0.277344 80.773438 0.277344 179.5 C 0.277344 278.226562 81.414062 358.261719 181.5 358.261719 C 281.585938 358.261719 362.722656 278.226562 362.722656 179.5 C 362.722656 80.773438 281.585938 0.738281 181.5 0.738281 Z M 181.5 0.738281 " clip-rule="nonzero"/></clipPath><clipPath id="106981ad95"><rect x="0" width="363" y="0" height="359"/></clipPath><clipPath id="d7db5aecbc"><rect x="0" width="209" y="0" height="375"/></clipPath><clipPath id="e02fb15dcb"><rect x="0" width="364" y="0" height="375"/></clipPath></defs><g transform="matrix(1, 0, 0, 1, 6, 0)"><g clip-path="url(#e02fb15dcb)"><g clip-path="url(#9b1b13597a)"><g clip-path="url(#45c1ab2355)"><g transform="matrix(1, 0, 0, 1, 0, 8)"><g clip-path="url(#106981ad95)"><g clip-path="url(#f18da3fad6)"><g clip-path="url(#2abb8fa3d0)"><path fill="#38b6ff" d="M 0.277344 0.738281 L 363.386719 0.738281 L 363.386719 358.261719 L 0.277344 358.261719 Z M 0.277344 0.738281 " fill-opacity="1" fill-rule="nonzero"/></g></g></g></g></g></g><g transform="matrix(1, 0, 0, 1, 75, 0)"><g clip-path="url(#d7db5aecbc)"><g fill="#ffffff" fill-opacity="1"><g transform="translate(5.796707, 307.796078)"><g><path d="M 98.84375 -63.234375 C 95.207031 -57.421875 91.210938 -49.179688 86.859375 -38.515625 C 85.398438 -35.128906 83.097656 -29.921875 79.953125 -22.890625 C 76.796875 -15.867188 74.492188 -10.660156 73.046875 -7.265625 C 71.585938 -3.878906 68.316406 -1.820312 63.234375 -1.09375 L 35.25 -1.09375 C 33.070312 -1.09375 30.40625 -1.210938 27.25 -1.453125 C 24.101562 -1.691406 21.441406 -1.8125 19.265625 -1.8125 C 17.078125 -1.570312 14.773438 -1.210938 12.359375 -0.734375 C 11.140625 -0.734375 10.289062 -0.851562 9.8125 -1.09375 C 9.570312 -1.09375 8.601562 -1.210938 6.90625 -1.453125 C 5.207031 -1.691406 3.992188 -2.054688 3.265625 -2.546875 C 2.296875 -2.785156 1.453125 -3.507812 0.734375 -4.71875 C -0.242188 -6.65625 0.238281 -9.566406 2.1875 -13.453125 C 3.875 -17.328125 5.566406 -20.234375 7.265625 -22.171875 C 9.203125 -24.835938 11.75 -28.832031 14.90625 -34.15625 C 18.050781 -39.488281 19.863281 -42.519531 20.34375 -43.25 C 21.800781 -45.664062 24.226562 -49.78125 27.625 -55.59375 C 31.007812 -61.414062 33.796875 -65.898438 35.984375 -69.046875 C 38.890625 -74.617188 42.28125 -81.523438 46.15625 -89.765625 C 49.789062 -97.992188 52.9375 -104.410156 55.59375 -109.015625 C 56.082031 -110.234375 57.898438 -113.019531 61.046875 -117.375 C 63.953125 -120.769531 64.316406 -124.769531 62.140625 -129.375 C 36.222656 -187.757812 18.660156 -224.945312 9.453125 -240.9375 C 7.753906 -243.84375 7.144531 -245.898438 7.625 -247.109375 C 7.875 -248.078125 9.332031 -248.6875 12 -248.9375 C 15.144531 -249.414062 19.503906 -250.503906 25.078125 -252.203125 C 30.398438 -253.660156 34.035156 -254.628906 35.984375 -255.109375 C 43.972656 -256.804688 51.359375 -256.320312 58.140625 -253.65625 C 64.203125 -251.71875 67.597656 -247.84375 68.328125 -242.03125 C 68.328125 -239.601562 68.929688 -237.421875 70.140625 -235.484375 C 73.773438 -230.160156 78.253906 -222.164062 83.578125 -211.5 C 88.910156 -200.601562 92.179688 -194.0625 93.390625 -191.875 C 93.390625 -191.394531 93.632812 -190.910156 94.125 -190.421875 C 95.332031 -188.242188 96.421875 -187.035156 97.390625 -186.796875 C 98.597656 -186.546875 99.445312 -186.785156 99.9375 -187.515625 C 100.175781 -188.003906 100.414062 -188.851562 100.65625 -190.0625 C 104.289062 -201.9375 107.441406 -209.6875 110.109375 -213.3125 C 110.597656 -214.039062 115.082031 -221.429688 123.5625 -235.484375 C 125.5 -238.390625 127.070312 -241.175781 128.28125 -243.84375 C 130.457031 -247.71875 132.03125 -250.265625 133 -251.484375 C 133.726562 -252.691406 135.425781 -254.019531 138.09375 -255.46875 C 140.757812 -256.6875 144.394531 -257.296875 149 -257.296875 L 180.25 -257.296875 C 183.882812 -257.296875 186.304688 -256.8125 187.515625 -255.84375 C 188.484375 -254.875 188.363281 -252.8125 187.15625 -249.65625 C 180.375 -229.3125 169.347656 -206.539062 154.078125 -181.34375 C 147.296875 -169.226562 139.664062 -153.113281 131.1875 -133 C 129.25 -128.40625 129.613281 -123.195312 132.28125 -117.375 C 136.15625 -108.414062 140.757812 -99.085938 146.09375 -89.390625 C 151.175781 -79.460938 157.109375 -68.5625 163.890625 -56.6875 C 170.679688 -44.820312 175.769531 -35.617188 179.15625 -29.078125 C 181.34375 -24.953125 183.039062 -21.554688 184.25 -18.890625 C 185.457031 -16.234375 186.664062 -13.445312 187.875 -10.53125 C 188.84375 -7.382812 189.085938 -5.085938 188.609375 -3.640625 C 188.117188 -1.941406 187.03125 -1.09375 185.34375 -1.09375 C 182.914062 -1.09375 178.796875 -0.972656 172.984375 -0.734375 C 166.921875 -0.484375 161.46875 -0.359375 156.625 -0.359375 C 151.78125 -0.359375 147.660156 -0.601562 144.265625 -1.09375 C 139.671875 -1.820312 136.398438 -3.394531 134.453125 -5.8125 C 128.890625 -11.875 125.257812 -16.476562 123.5625 -19.625 C 121.863281 -22.769531 118.109375 -29.3125 112.296875 -39.25 C 106.234375 -49.175781 101.75 -57.171875 98.84375 -63.234375 Z M 98.84375 -63.234375 "/></g></g></g></g></g></g></g></svg>